<svg width="24" height="24" viewBox="0 0 24 24" fill="none" xmlns="http://www.w3.org/2000/svg">
<path d="M14.7099 15.88L10.8299 12L14.7099 8.12C15.0999 7.73 15.0999 7.1 14.7099 6.71C14.3199 6.32 13.6899 6.32 13.2999 6.71L8.70994 11.3C8.31994 11.69 8.31994 12.32 8.70994 12.71L13.2999 17.3C13.6899 17.69 14.3199 17.69 14.7099 17.3C15.0899 16.91 15.0999 16.27 14.7099 15.88Z" fill="#979797"/>
<path d="M9.29246 15.88L5.41246 12L9.29246 8.12C9.68246 7.73 9.68246 7.1 9.29246 6.71C8.90246 6.32 8.27246 6.32 7.88246 6.71L3.29246 11.3C2.90246 11.69 2.90246 12.32 3.29246 12.71L7.88246 17.3C8.27246 17.69 8.90246 17.69 9.29246 17.3C9.67246 16.91 9.68246 16.27 9.29246 15.88Z" fill="#637381"/>
</svg>
